<svg width="20" height="20" viewBox="0 0 20 20" fill="none" xmlns="http://www.w3.org/2000/svg">
<path d="M19.5263 8.76875L17.2763 8.205C17.0948 7.47209 16.8036 6.77084 16.4125 6.125L17.6075 4.13375C17.6793 4.01423 17.7091 3.87413 17.6921 3.73574C17.6751 3.59734 17.6123 3.46861 17.5138 3.37L16.625 2.48625C16.5264 2.38767 16.3977 2.32489 16.2593 2.30791C16.1209 2.29092 15.9808 2.32069 15.8612 2.3925L13.875 3.5875C13.2291 3.19679 12.5278 2.90601 11.795 2.725L11.2312 0.47375C11.1975 0.33848 11.1195 0.218374 11.0097 0.132531C10.8998 0.0466884 10.7644 3.85143e-05 10.625 0L9.375 0C9.23559 3.85143e-05 9.10019 0.0466884 8.99034 0.132531C8.88048 0.218374 8.80249 0.33848 8.76875 0.47375L8.205 2.72375C7.47209 2.90518 6.77084 3.19639 6.125 3.5875L4.13375 2.3925C4.01423 2.32069 3.87413 2.29092 3.73574 2.30791C3.59734 2.32489 3.46861 2.38767 3.37 2.48625L2.48625 3.375C2.38767 3.47361 2.32489 3.60234 2.30791 3.74074C2.29092 3.87913 2.32069 4.01923 2.3925 4.13875L3.5875 6.125C3.19679 6.77089 2.90601 7.47215 2.725 8.205L0.475 8.76875C0.339498 8.80225 0.21911 8.88014 0.133023 8.99002C0.046937 9.09989 0.000107891 9.23542 0 9.375L0 10.625C3.85143e-05 10.7644 0.0466884 10.8998 0.132531 11.0097C0.218374 11.1195 0.33848 11.1975 0.47375 11.2312L2.72375 11.795C2.90518 12.5279 3.19639 13.2292 3.5875 13.875L2.3925 15.8663C2.32069 15.9858 2.29092 16.1259 2.30791 16.2643C2.32489 16.4027 2.38767 16.5314 2.48625 16.63L3.37 17.5138C3.46861 17.6123 3.59734 17.6751 3.73574 17.6921C3.87413 17.7091 4.01423 17.6793 4.13375 17.6075L6.125 16.4125C6.77089 16.8032 7.47215 17.094 8.205 17.275L8.76875 19.525C8.80225 19.6605 8.88014 19.7809 8.99002 19.867C9.09989 19.9531 9.23542 19.9999 9.375 20H10.625C10.7644 20 10.8998 19.9533 11.0097 19.8675C11.1195 19.7816 11.1975 19.6615 11.2312 19.5263L11.795 17.2763C12.5278 17.0952 13.2291 16.8045 13.875 16.4137L15.8663 17.6087C15.9858 17.6806 16.1259 17.7103 16.2643 17.6933C16.4027 17.6764 16.5314 17.6136 16.63 17.515L17.5138 16.6313C17.6123 16.5326 17.6751 16.4039 17.6921 16.2655C17.7091 16.1271 17.6793 15.987 17.6075 15.8675L16.4125 13.875C16.8032 13.2291 17.094 12.5278 17.275 11.795L19.525 11.2312C19.6605 11.1978 19.7809 11.1199 19.867 11.01C19.9531 10.9001 19.9999 10.7646 20 10.625V9.375C20 9.23559 19.9533 9.10019 19.8675 8.99034C19.7816 8.88048 19.6615 8.80249 19.5263 8.76875ZM10 13.75C9.25832 13.75 8.5333 13.5301 7.91661 13.118C7.29993 12.706 6.81928 12.1203 6.53545 11.4351C6.25162 10.7498 6.17736 9.99584 6.32206 9.26841C6.46675 8.54098 6.8239 7.8728 7.34835 7.34835C7.8728 6.8239 8.54098 6.46675 9.26841 6.32206C9.99584 6.17736 10.7498 6.25162 11.4351 6.53545C12.1203 6.81928 12.706 7.29993 13.118 7.91661C13.5301 8.5333 13.75 9.25832 13.75 10C13.75 10.9946 13.3549 11.9484 12.6517 12.6517C11.9484 13.3549 10.9946 13.75 10 13.75Z" fill="#575757"/>
</svg>
